<svg width="61" height="60" viewBox="0 0 61 60" xmlns="http://www.w3.org/2000/svg"><title>853F0DCF-538A-4381-B1CF-DDAD6A070580</title><path d="M60.68 24.316H42.864L56.346 51.18a15.25 15.25 0 0 1-.085.231l-.09.22a9.806 9.806 0 0 1-.12.266l-.112.221-.113.21c-.113.191-.137.232-.162.272l-.127.197-.136.196a7.387 7.387 0 0 1-1.93 1.84L44.906 37.76 9.298 55.543c-.181-.07-.208-.08-.234-.092l-.22-.095-.213-.101-.204-.105-.204-.113-.192-.115-.2-.13a7.39 7.39 0 0 1-2.032-2.042l17.06-8.52L5.014 8.753A7.23 7.23 0 0 1 7.82 5.136l8.528 16.956L60.52 0H11.913C5.712 0 .684 5.013.684 11.196v37.608C.684 54.987 5.712 60 11.914 60H49.45c6.202 0 11.23-5.013 11.23-11.196V24.316z" fill="#5CD8A4" fill-rule="evenodd"/></svg>