<svg width="81" height="60" viewBox="0 0 81 60" xmlns="http://www.w3.org/2000/svg"><title>6306EE64-44C0-49CC-ABB0-AD998CF3FADF</title><path d="M49.931.818l-2.71-.743a1.22 1.22 0 0 0-1.027.11c-.335.19-.561.473-.678.852L29.214 57.451c-.116.379-.08.736.11 1.07.19.336.473.562.852.678l2.71.743c.35.117.692.08 1.027-.11.335-.189.561-.473.677-.85L50.892 2.566a1.31 1.31 0 0 0-.109-1.071 1.42 1.42 0 0 0-.852-.678zM25.436 11.831c0-.378-.145-.713-.437-1.005l-2.185-2.185c-.291-.29-.627-.437-1.005-.437-.38 0-.714.146-1.006.437L.437 29.004C.145 29.295 0 29.631 0 30.01s.146.714.437 1.005l20.366 20.363c.292.292.626.437 1.006.437.379 0 .714-.145 1.005-.437l2.185-2.184c.292-.291.437-.626.437-1.005 0-.378-.145-.714-.437-1.005L7.823 30.009 25 12.837c.292-.292.437-.627.437-1.006zM79.67 29.004L59.304 8.64c-.292-.291-.627-.437-1.005-.437-.38 0-.714.146-1.006.437l-2.184 2.185c-.292.291-.437.626-.437 1.005 0 .38.145.714.437 1.005L72.285 30.01 55.109 47.183c-.292.292-.437.627-.437 1.005 0 .38.145.714.437 1.006l2.184 2.184c.292.291.627.436 1.006.436.378 0 .713-.145 1.005-.436L79.67 31.015c.291-.292.437-.627.437-1.006s-.146-.714-.437-1.005z" fill="#5CD8A4" fill-rule="evenodd"/></svg>