<svg width="75" height="71" viewBox="0 0 75 71" xmlns="http://www.w3.org/2000/svg"><title>138BDBB5-7EF9-40CC-BB3B-8850AAACD0C1</title><path d="M55.53 35.863c1.553.08 3.104-.047 4.61-.377l.429 1.953a19.311 19.311 0 0 1-5.038.427v10.096a2.995 2.995 0 0 1-2.999 3H26.037a2.995 2.995 0 0 1-2.999-3v-29.74a2.995 2.995 0 0 1 2.999-3h26.495a2.995 2.995 0 0 1 2.999 3v17.641zM34.164 60.05l-1.71-1.07 4.082-.942.943 4.083-1.618-1.01a18.29 18.29 0 0 1-2.927 3.763l-1.405-1.423a16.294 16.294 0 0 0 2.635-3.401zm7.458-50.91l1.692 1.1-4.099.87-.871-4.098 1.6 1.039a18.294 18.294 0 0 1 3.214-3.596l1.302 1.518a16.291 16.291 0 0 0-2.838 3.167zm28.133 23.289l-1.418-1.41a16.289 16.289 0 0 1-3.772 2.822l.955 1.757a18.288 18.288 0 0 0 4.235-3.169zm4.979-9.305l-1.96-.395a16.233 16.233 0 0 1-1.59 4.434l1.764.941a18.233 18.233 0 0 0 1.786-4.98zm-.884-10.44l-1.87.708a17.205 17.205 0 0 1 1.055 4.606l1.992-.173a19.205 19.205 0 0 0-1.177-5.142zm-6.175-8.416l-1.242 1.568A17.73 17.73 0 0 1 69.72 9.24l1.612-1.184a19.73 19.73 0 0 0-3.658-3.79zM58.004.142l-.265 1.982a17.59 17.59 0 0 1 4.563 1.253l.783-1.84a19.59 19.59 0 0 0-5.08-1.395zM47.62 1.628l.818 1.825a16.98 16.98 0 0 1 4.537-1.308l-.283-1.98a18.98 18.98 0 0 0-5.072 1.463zM13.262 33.183l.565 1.918a17.318 17.318 0 0 1 4.674-.7l-.024-2a19.318 19.318 0 0 0-5.215.782zm-8.813 5.64l1.513 1.308a16.289 16.289 0 0 1 3.566-3.079l-1.076-1.686a18.288 18.288 0 0 0-4.003 3.456zM.131 48.451l1.984.257c.202-1.561.63-3.085 1.276-4.534l-1.826-.816a18.233 18.233 0 0 0-1.434 5.093zm1.61 10.353l1.817-.837a17.205 17.205 0 0 1-1.374-4.522l-1.975.312c.274 1.738.79 3.438 1.533 5.047zm6.747 7.965l1.13-1.651A17.73 17.73 0 0 1 6.1 61.95l-1.525 1.294a19.73 19.73 0 0 0 3.913 3.525zm9.935 3.44l.125-1.996a17.59 17.59 0 0 1-4.638-.932l-.653 1.89a19.59 19.59 0 0 0 5.166 1.038zm10.255-2.207l-.943-1.764a16.98 16.98 0 0 1-4.434 1.622l.42 1.956a18.98 18.98 0 0 0 4.957-1.814zM26.99 18.991h21.927V21.3H26.99v-2.308zm-1.952 28.97a.995.995 0 0 0 .999 1.002h26.495a.995.995 0 0 0 .999-1.001v-19.74H25.038v19.74zm1.952-11.907h24.564v2H26.99v-2zm0 4h17.546v2H26.99v-2zm0-8h24.564v2H26.99v-2z" fill="#5CD8A4" fill-rule="evenodd"/></svg>