<svg width="81" height="61" viewBox="0 0 81 61" xmlns="http://www.w3.org/2000/svg"><title>C04EF2F6-48E3-4E34-B572-B894F037D772</title><path d="M56.729 36.203c2.362-3.407 3.543-7.18 3.543-11.316 0-1.16-.12-2.41-.359-3.75l-12.556 22.41c3.886-1.488 7.01-3.937 9.372-7.344zm1.84-30.87c.03-.059.043-.193.043-.401 0-.506-.239-.907-.718-1.207-.09-.059-.38-.23-.874-.514a85.09 85.09 0 0 1-1.413-.825c-.448-.268-.94-.543-1.48-.826A30.436 30.436 0 0 0 52.74.868C52.349.689 52.08.6 51.93.6c-.538 0-.957.238-1.255.715l-2.422 4.33a44.092 44.092 0 0 0-8.072-.76c-8.042 0-15.457 2.025-22.243 6.073C11.152 15.006 5.472 20.526.897 27.52A5.545 5.545 0 0 0 0 30.6c0 1.132.299 2.159.897 3.08a53.333 53.333 0 0 0 9.35 10.938c3.603 3.215 7.542 5.788 11.817 7.724-1.315 2.231-1.973 3.526-1.973 3.883 0 .536.24.953.718 1.25 3.647 2.084 5.65 3.125 6.009 3.125.537 0 .956-.239 1.255-.715l2.197-3.973a7824.53 7824.53 0 0 0 14.172-25.311A13148.634 13148.634 0 0 1 58.568 5.334zm-33.68 42.009C17.116 43.86 10.733 38.28 5.74 30.602c4.545-7.025 10.24-12.278 17.086-15.76-1.823 3.096-2.735 6.444-2.735 10.045 0 3.185.732 6.205 2.197 9.062a19.722 19.722 0 0 0 6.1 7.098l-3.499 6.295zm16.818-32.367a2.08 2.08 0 0 1-1.525.626c-2.572 0-4.77.908-6.593 2.723-1.824 1.816-2.736 4.003-2.736 6.562 0 .596-.21 1.102-.628 1.519a2.08 2.08 0 0 1-1.524.625 2.083 2.083 0 0 1-1.526-.625 2.063 2.063 0 0 1-.628-1.519c0-3.72 1.338-6.912 4.014-9.575 2.676-2.664 5.882-3.996 9.62-3.996.597 0 1.106.21 1.525.626.418.416.628.922.628 1.517 0 .596-.21 1.102-.627 1.517zM79.466 27.52c-1.705-2.827-3.865-5.566-6.48-8.214-2.615-2.649-5.344-4.925-8.184-6.83l-2.826 5c4.993 3.422 9.209 7.797 12.647 13.124-3.617 5.595-8.125 10.164-13.52 13.705-5.397 3.543-11.264 5.58-17.602 6.116l-3.32 5.893c6.638 0 12.909-1.414 18.813-4.24 5.905-2.827 11.1-6.8 15.584-11.92 2.093-2.41 3.722-4.568 4.888-6.473.598-1.012.897-2.04.897-3.08 0-1.042-.299-2.069-.897-3.081z" fill="#5CD8A4" fill-rule="evenodd"/></svg>