<?xml version="1.0" encoding="UTF-8" standalone="no"?>
<svg width="128px" height="32px" viewBox="0 0 128 32" version="1.1" xmlns="http://www.w3.org/2000/svg" xmlns:xlink="http://www.w3.org/1999/xlink">
    <!-- Generator: Sketch 40.3 (33839) - http://www.bohemiancoding.com/sketch -->
    <title>Group 2</title>
    <desc>Created with Sketch.</desc>
    <defs></defs>
    <g id="Page-1" stroke="none" stroke-width="1" fill="none" fill-rule="evenodd">
        <g id="Group-2" fill="#3C424E">
            <path d="M13.4648438,6.03515625 L10.8808594,7.56640625 C10.397784,6.72786039 9.93750219,6.18099086 9.5,5.92578125 C9.04426855,5.63411312 8.45638381,5.48828125 7.73632812,5.48828125 C6.85220912,5.48828125 6.1184925,5.73892979 5.53515625,6.24023438 C4.95182,6.73242434 4.66015625,7.3522098 4.66015625,8.09960938 C4.66015625,9.12956244 5.42577359,9.95898123 6.95703125,10.5878906 L9.0625,11.4492188 C10.7760502,12.1419305 12.0292929,12.9872997 12.8222656,13.9853516 C13.6152383,14.9834034 14.0117188,16.207024 14.0117188,17.65625 C14.0117188,19.597666 13.3645898,21.2018166 12.0703125,22.46875 C10.7669206,23.744798 9.1490982,24.3828125 7.21679688,24.3828125 C5.38475646,24.3828125 3.87175076,23.8405002 2.67773438,22.7558594 C1.50194725,21.6712185 0.768230625,20.1445411 0.4765625,18.1757812 L3.703125,17.4648438 C3.84895906,18.7044333 4.10416484,19.5611955 4.46875,20.0351562 C5.12500328,20.9466191 6.08202496,21.4023438 7.33984375,21.4023438 C8.3333383,21.4023438 9.15819984,21.0696648 9.81445312,20.4042969 C10.4707064,19.738929 10.7988281,18.8958384 10.7988281,17.875 C10.7988281,17.4648417 10.7418625,17.0888689 10.6279297,16.7470703 C10.5139968,16.4052717 10.3362642,16.0908217 10.0947266,15.8037109 C9.8531889,15.5166001 9.54101754,15.2477226 9.15820312,14.9970703 C8.77538871,14.746418 8.3196641,14.5071626 7.79101563,14.2792969 L5.75390625,13.4316406 C2.86456889,12.2102804 1.41992188,10.4238399 1.41992188,8.07226562 C1.41992188,6.4863202 2.02603561,5.16016158 3.23828125,4.09375 C4.45052689,3.01822379 5.95897535,2.48046875 7.76367188,2.48046875 C10.1972778,2.48046875 12.0976494,3.66535273 13.4648438,6.03515625 L13.4648438,6.03515625 Z M28.6289062,11.2578125 L28.6289062,15.3457031 C27.9270798,14.488928 27.2981799,13.9010433 26.7421875,13.5820312 C26.1953098,13.2539046 25.5527381,13.0898438 24.8144531,13.0898438 C23.6568953,13.0898438 22.6953163,13.4954387 21.9296875,14.3066406 C21.1640587,15.1178426 20.78125,16.1341085 20.78125,17.3554688 C20.78125,18.6041729 21.1503869,19.6295533 21.8886719,20.4316406 C22.6360714,21.233728 23.5885359,21.6347656 24.7460938,21.6347656 C25.4843787,21.6347656 26.1360649,21.475262 26.7011719,21.15625 C27.2480496,20.8463526 27.8906213,20.2447961 28.6289062,19.3515625 L28.6289062,23.4121094 C27.3802021,24.059248 26.1315167,24.3828125 24.8828125,24.3828125 C22.8229064,24.3828125 21.1002673,23.7174546 19.7148438,22.3867188 C18.3294202,21.0468683 17.6367188,19.3834735 17.6367188,17.3964844 C17.6367188,15.4094953 18.3385346,13.7324287 19.7421875,12.3652344 C21.1458404,10.99804 22.8684794,10.3144531 24.9101562,10.3144531 C26.2226628,10.3144531 27.4622338,10.6289031 28.6289062,11.2578125 L28.6289062,11.2578125 Z M32.609375,10.6835938 L35.6855469,10.6835938 L35.6855469,11.8730469 C36.2506539,11.280596 36.7519509,10.8750011 37.1894531,10.65625 C37.6360699,10.4283843 38.1647105,10.3144531 38.7753906,10.3144531 C39.5865926,10.3144531 40.4342404,10.5787734 41.3183594,11.1074219 L39.9101562,13.9238281 C39.32682,13.5045552 38.7571642,13.2949219 38.2011719,13.2949219 C36.5240802,13.2949219 35.6855469,14.5618363 35.6855469,17.0957031 L35.6855469,24 L32.609375,24 L32.609375,10.6835938 Z M53.7070312,10.6835938 L56.796875,10.6835938 L56.796875,24 L53.7070312,24 L53.7070312,22.6054688 C52.4400978,23.7903705 51.0774812,24.3828125 49.6191406,24.3828125 C47.7779856,24.3828125 46.2558654,23.7174546 45.0527344,22.3867188 C43.858718,21.028639 43.2617188,19.3333435 43.2617188,17.3007812 C43.2617188,15.3046775 43.858718,13.6412827 45.0527344,12.3105469 C46.2467508,10.9798111 47.7415275,10.3144531 49.5371094,10.3144531 C51.0865963,10.3144531 52.4765563,10.9524676 53.7070312,12.2285156 L53.7070312,10.6835938 Z M46.40625,17.3007812 C46.40625,18.5768293 46.7480435,19.6158814 47.4316406,20.4179688 C48.1334671,21.2291707 49.0175728,21.6347656 50.0839844,21.6347656 C51.223313,21.6347656 52.1438767,21.2428425 52.8457031,20.4589844 C53.5475296,19.6477824 53.8984375,18.6178448 53.8984375,17.3691406 C53.8984375,16.1204365 53.5475296,15.0904988 52.8457031,14.2792969 C52.1438767,13.4863242 51.2324275,13.0898438 50.1113281,13.0898438 C49.0540312,13.0898438 48.1699254,13.4908814 47.4589844,14.2929688 C46.7571579,15.1041707 46.40625,16.1067649 46.40625,17.3007812 L46.40625,17.3007812 Z M64.7558594,31.2460938 L61.6796875,31.2460938 L61.6796875,10.6835938 L64.7558594,10.6835938 L64.7558594,12.1328125 C65.968105,10.9205669 67.3443933,10.3144531 68.8847656,10.3144531 C70.716806,10.3144531 72.2252545,10.9889255 73.4101562,12.3378906 C74.6132873,13.6777411 75.2148438,15.3684794 75.2148438,17.4101562 C75.2148438,19.40626 74.6178445,21.0696548 73.4238281,22.4003906 C72.2389264,23.7220118 70.7441496,24.3828125 68.9394531,24.3828125 C67.3808516,24.3828125 65.9863343,23.7584698 64.7558594,22.5097656 L64.7558594,31.2460938 Z M72.0703125,17.4238281 C72.0703125,16.1477801 71.7239618,15.108728 71.03125,14.3066406 C70.3294236,13.4954387 69.4453178,13.0898438 68.3789062,13.0898438 C67.2486923,13.0898438 66.3326858,13.4817669 65.6308594,14.265625 C64.9290329,15.0494831 64.578125,16.0794207 64.578125,17.3554688 C64.578125,18.6041729 64.9290329,19.6341105 65.6308594,20.4453125 C66.3235712,21.2382852 67.2350204,21.6347656 68.3652344,21.6347656 C69.431646,21.6347656 70.3111945,21.233728 71.0039062,20.4316406 C71.7148473,19.6295533 72.0703125,18.6269591 72.0703125,17.4238281 L72.0703125,17.4238281 Z M82.5449219,0.908203125 L82.5449219,12.2285156 C83.7753968,10.9524676 85.1699141,10.3144531 86.7285156,10.3144531 C88.5240975,10.3144531 90.0188742,10.9843683 91.2128906,12.3242188 C92.406907,13.6549546 93.0039062,15.3137921 93.0039062,17.3007812 C93.0039062,19.3515728 92.4023498,21.0468683 91.1992188,22.3867188 C90.0052024,23.7174546 88.4967539,24.3828125 86.6738281,24.3828125 C85.1334558,24.3828125 83.7571675,23.7903705 82.5449219,22.6054688 L82.5449219,24 L79.46875,24 L79.46875,0.908203125 L82.5449219,0.908203125 Z M89.859375,17.4375 C89.859375,16.161452 89.5130243,15.1223998 88.8203125,14.3203125 C88.1184861,13.4999959 87.2389376,13.0898438 86.1816406,13.0898438 C85.0514266,13.0898438 84.1308629,13.4863242 83.4199219,14.2792969 C82.7180954,15.063155 82.3671875,16.0839781 82.3671875,17.3417969 C82.3671875,18.6360742 82.7135382,19.670569 83.40625,20.4453125 C84.0989618,21.2382852 85.010411,21.6347656 86.140625,21.6347656 C87.2070366,21.6347656 88.0911423,21.2382852 88.7929688,20.4453125 C89.5039098,19.6432252 89.859375,18.640631 89.859375,17.4375 L89.859375,17.4375 Z M96.6289062,17.2460938 C96.6289062,15.3229071 97.3170504,13.6868557 98.6933594,12.3378906 C100.069668,10.9889255 101.746735,10.3144531 103.724609,10.3144531 C105.711598,10.3144531 107.39778,10.9934828 108.783203,12.3515625 C110.150397,13.7096422 110.833984,15.3775943 110.833984,17.3554688 C110.833984,19.3515725 110.14584,21.0240818 108.769531,22.3730469 C107.384108,23.7128973 105.684255,24.3828125 103.669922,24.3828125 C101.673818,24.3828125 100.001309,23.6992256 98.6523438,22.3320312 C97.3033787,20.9830662 96.6289062,19.2877706 96.6289062,17.2460938 L96.6289062,17.2460938 Z M99.7734375,17.3007812 C99.7734375,18.6315171 100.128903,19.6842409 100.839844,20.4589844 C101.569014,21.2428425 102.530593,21.6347656 103.724609,21.6347656 C104.92774,21.6347656 105.889319,21.2473997 106.609375,20.4726562 C107.329431,19.6979128 107.689453,18.6634179 107.689453,17.3691406 C107.689453,16.0748633 107.329431,15.0403685 106.609375,14.265625 C105.880205,13.4817669 104.918626,13.0898438 103.724609,13.0898438 C102.548822,13.0898438 101.596358,13.4817669 100.867188,14.265625 C100.138017,15.0494831 99.7734375,16.0611917 99.7734375,17.3007812 L99.7734375,17.3007812 Z M118.546875,16.7949219 L113.761719,10.6835938 L117.425781,10.6835938 L120.392578,14.5664062 L123.414062,10.6835938 L127.1875,10.6835938 L122.265625,16.7949219 L127.966797,24 L124.302734,24 L120.392578,19.0234375 L116.386719,24 L112.626953,24 L118.546875,16.7949219 Z" id="Scrapbox"></path>
        </g>
    </g>
</svg>