<svg width="58" height="61" viewBox="0 0 58 61" xmlns="http://www.w3.org/2000/svg"><title>089037FB-C10A-401D-A4E3-2F6C31C2CE36</title><path d="M6.82 24.48c0-9.316 7.372-16.899 16.437-16.899 9.062 0 16.438 7.583 16.438 16.898s-7.376 16.898-16.438 16.898c-9.065 0-16.437-7.583-16.437-16.898zm50.02 29.212l.061.062-.005.005c.577.72.925 1.65.925 2.663 0 2.29-1.776 4.148-3.966 4.148-1.27 0-2.4-.624-3.126-1.594L36.368 44.213c-3.734 2.633-8.252 4.174-13.11 4.174C10.43 48.387 0 37.661 0 24.48 0 11.298 10.43.571 23.257.571c12.823 0 23.258 10.727 23.258 23.908a24.24 24.24 0 0 1-4.44 14.034l14.34 14.741c.152.135.295.282.426.439z" fill="#5CD8A4" fill-rule="evenodd"/></svg>