<svg width="60" height="60" viewBox="0 0 60 60" xmlns="http://www.w3.org/2000/svg"><title>F27BF390-F08A-4664-B3DE-E34DB4D0265C</title><path d="M24.538 27.335l2.71 8.1 8.23-2.754-2.71-8.1-8.23 2.754zm-1.887-5.639l-1.37-4.096c-.534-1.594-2.229-2.464-3.786-1.943-1.557.521-2.387 2.236-1.854 3.83l1.37 4.096-4.001 1.34c-1.594.533-2.464 2.227-1.943 3.785.52 1.557 2.235 2.387 3.83 1.853l4.002-1.339 2.71 8.1-3.89 1.302c-1.594.533-2.464 2.228-1.943 3.785.52 1.557 2.235 2.387 3.83 1.854l3.89-1.302 1.363 4.076c.534 1.594 2.228 2.463 3.786 1.942 1.557-.52 2.387-2.235 1.853-3.83l-1.363-4.075 8.23-2.753 1.354 4.046c.533 1.594 2.228 2.464 3.785 1.943 1.557-.521 2.387-2.236 1.854-3.83l-1.354-4.046 4.151-1.39c1.594-.533 2.464-2.227 1.943-3.785-.521-1.557-2.236-2.387-3.83-1.853l-4.15 1.389-2.711-8.1 4.04-1.352c1.593-.533 2.463-2.228 1.942-3.785-.52-1.557-2.235-2.387-3.83-1.854l-4.039 1.352-1.38-4.126c-.534-1.594-2.228-2.464-3.785-1.943-1.558.522-2.388 2.236-1.854 3.83l1.38 4.126-8.23 2.753zM1.619 33.246C-2.093 21.105 4.743 8.252 16.883 4.54l9.796-2.995C38.82-2.168 51.675 4.67 55.386 16.808l2.995 9.797c3.712 12.142-3.124 24.995-15.264 28.707l-9.796 2.995C21.18 62.019 8.325 55.182 4.614 43.043l-2.995-9.796z" fill="#5CD8A4" fill-rule="evenodd"/></svg>